<?xml version="1.0" encoding="utf-8"?>
<!-- Generator: Adobe Illustrator 17.1.0, SVG Export Plug-In . SVG Version: 6.00 Build 0)  -->
<!DOCTYPE svg PUBLIC "-//W3C//DTD SVG 1.1//EN" "http://www.w3.org/Graphics/SVG/1.1/DTD/svg11.dtd">
<svg version="1.1" id="Слой_1" xmlns="http://www.w3.org/2000/svg" xmlns:xlink="http://www.w3.org/1999/xlink" x="0px" y="0px"
	 viewBox="0 0 137 97" enable-background="new 0 0 137 97" xml:space="preserve">
<path fill-rule="evenodd" clip-rule="evenodd" fill="#ffffff" d="M95.8,30.8H93H79.4c0-2.9-2.4-5.3-5.5-5.3H63c-3,0-5.5,2.4-5.5,5.3H44
	h-2.7c-1.5,0-2.7,1.2-2.7,2.7v13.3c0,1.5,1.2,2.7,2.7,2.7v21.3c0,1.5,1.2,2.7,2.7,2.7H93c1.5,0,2.7-1.2,2.7-2.7V49.5
	c1.5,0,2.7-1.2,2.7-2.7V33.5C98.5,32,97.3,30.8,95.8,30.8z M63,28.2H74c1.5,0,2.7,1.2,2.7,2.7H60.3C60.3,29.4,61.5,28.2,63,28.2z
	 M93,70.8H44V49.5h5.5v2.7c0,1.5,1.2,2.7,2.7,2.7h5.5c1.5,0,2.7-1.2,2.7-2.7v-2.7h16.4v2.7c0,1.5,1.2,2.7,2.7,2.7h5.5
	c1.5,0,2.7-1.2,2.7-2.7v-2.7H93V70.8z M52.1,52.2v-8h5.5v8H52.1z M79.4,52.2v-8h5.5v8H79.4z M95.8,46.8h-8.2v-2.7
	c0-1.5-1.2-2.7-2.7-2.7h-5.5c-1.5,0-2.7,1.2-2.7,2.7v2.7H60.3v-2.7c0-1.5-1.2-2.7-2.7-2.7h-5.5c-1.5,0-2.7,1.2-2.7,2.7v2.7h-8.2
	V33.5h54.5V46.8z"/>
</svg>
