<?xml version="1.0" encoding="utf-8"?>
<!-- Generator: Adobe Illustrator 17.1.0, SVG Export Plug-In . SVG Version: 6.00 Build 0)  -->
<!DOCTYPE svg PUBLIC "-//W3C//DTD SVG 1.1//EN" "http://www.w3.org/Graphics/SVG/1.1/DTD/svg11.dtd">
<svg version="1.1" id="Слой_1" xmlns="http://www.w3.org/2000/svg" xmlns:xlink="http://www.w3.org/1999/xlink" x="0px" y="0px"
	 viewBox="0 0 148 142" enable-background="new 0 0 148 142" xml:space="preserve">
                        <g>
                          <path fill="#FFFFFF" d="M57.91,36.623l-1.189-2.204c-0.248-0.458-0.82-0.63-1.279-0.382s-0.631,0.821-0.384,1.279l1.189,2.203   c0.171,0.316,0.496,0.497,0.832,0.497c0.151,0,0.305-0.036,0.448-0.113C57.986,37.655,58.157,37.082,57.91,36.623z"/>
                          <path fill="#FFFFFF" d="M59.913,43.299c0.152,0,0.306-0.035,0.448-0.112c0.459-0.247,0.631-0.821,0.383-1.279l-1.19-2.204   c-0.248-0.459-0.819-0.631-1.279-0.384c-0.459,0.248-0.631,0.821-0.383,1.281l1.189,2.203   C59.251,43.119,59.577,43.299,59.913,43.299z"/>
                          <path fill="#FFFFFF" d="M56.081,53.156l-2.356,1.275c-0.458,0.249-0.629,0.82-0.38,1.279c0.171,0.314,0.496,0.495,0.831,0.495   c0.152,0,0.307-0.037,0.449-0.114l2.355-1.273c0.459-0.249,0.63-0.822,0.381-1.282C57.113,53.079,56.54,52.907,56.081,53.156z"/>
                          <path fill="#FFFFFF" d="M73.863,54.36l-2.439-1.313c-0.458-0.247-1.032-0.073-1.278,0.386c-0.247,0.459-0.075,1.03,0.384,1.277   l2.438,1.313c0.143,0.077,0.295,0.113,0.447,0.113c0.337,0,0.663-0.181,0.833-0.497C74.494,55.181,74.321,54.607,73.863,54.36z"/>
                          <path fill="#FFFFFF" d="M79.704,57.753l-2.439-1.312c-0.459-0.248-1.031-0.076-1.278,0.384s-0.075,1.032,0.384,1.279l2.438,1.313   c0.143,0.076,0.296,0.113,0.446,0.113c0.336,0,0.662-0.18,0.833-0.498C80.335,58.573,80.163,58.001,79.704,57.753z"/>
                          <path fill="#FFFFFF" d="M85.867,31.72c0-2.468-2.008-4.477-4.478-4.477c-2.469,0-4.478,2.009-4.478,4.477   c0,0.819,0.222,1.586,0.605,2.246l-10.449,10.85c-0.896-0.54-1.943-0.853-3.064-0.853c-3.279,0-5.947,2.668-5.947,5.947   c0,3.278,2.667,5.945,5.947,5.945c0.09,0,0.181-0.003,0.271-0.006l2.313,9.127c-1.354,0.771-2.269,2.227-2.269,3.894   c0,2.468,2.008,4.478,4.477,4.478c2.468,0,4.477-2.01,4.477-4.478c0-2.461-1.993-4.464-4.45-4.478l-2.307-9.095   c2.026-0.948,3.435-3.008,3.435-5.389c0-1.327-0.438-2.553-1.173-3.543l10.375-10.771c0.657,0.381,1.422,0.602,2.235,0.602   C83.859,36.198,85.867,34.189,85.867,31.72z M71.386,68.87c0,1.427-1.162,2.588-2.589,2.588s-2.589-1.161-2.589-2.588   c0-1.428,1.162-2.589,2.589-2.589S71.386,67.442,71.386,68.87z M64.005,53.548c-2.006,0-3.638-1.632-3.638-3.638   c0-2.007,1.632-3.638,3.638-3.638s3.638,1.631,3.638,3.638C67.643,51.916,66.011,53.548,64.005,53.548z M81.39,34.311   c-1.428,0-2.589-1.163-2.589-2.591s1.161-2.588,2.589-2.588s2.588,1.16,2.588,2.588C83.979,33.146,82.817,34.311,81.39,34.311z"/>
                          <circle fill="#FFFFFF" cx="53.616" cy="30.497" r="2.938"/>
                          <circle fill="#FFFFFF" cx="49.138" cy="57.815" r="2.938"/>
                          <circle fill="#FFFFFF" cx="84.363" cy="61.349" r="2.938"/>
                        </g>
</svg>
