<?xml version="1.0" encoding="utf-8"?>
<!-- Generator: Adobe Illustrator 17.1.0, SVG Export Plug-In . SVG Version: 6.00 Build 0)  -->
<!DOCTYPE svg PUBLIC "-//W3C//DTD SVG 1.1//EN" "http://www.w3.org/Graphics/SVG/1.1/DTD/svg11.dtd">
<svg version="1.1" id="Слой_1" xmlns="http://www.w3.org/2000/svg" xmlns:xlink="http://www.w3.org/1999/xlink" x="0px" y="0px"
	 viewBox="0 0 148 142" enable-background="new 0 0 148 142" xml:space="preserve">
                      <g>
                        <path fill="#FFFFFF" d="M85.219,72.994c-0.584,0-1.579-0.471-3.882-1.624c-1.023-0.513-2.57-1.288-2.934-1.352h-0.081   c-0.303,0-0.688,0.062-1.095,0.174c-3.176,1.63-6.749,2.49-10.34,2.49c-12.504,0-22.678-10.173-22.678-22.678   c0-12.504,10.174-22.677,22.678-22.677s22.678,10.173,22.678,22.677c0,5.236-1.825,10.34-5.143,14.38   c-0.166,0.343-0.344,0.844-0.344,1.236c0.032,0.312,0.597,1.779,0.972,2.751c1.214,3.153,1.449,3.841,0.832,4.381   C85.759,72.864,85.542,72.994,85.219,72.994z M66.889,29.044c-11.559,0-20.963,9.403-20.963,20.962   c0,11.56,9.404,20.963,20.963,20.963c3.396,0,6.634-0.787,9.628-2.339l0.153-0.063c0.464-0.134,1.189-0.295,1.86-0.259   c0.537,0.028,1.455,0.466,3.574,1.527c0.611,0.307,1.396,0.698,2.039,0.998c-0.212-0.594-0.48-1.295-0.693-1.847   c-0.771-2.004-1.085-2.87-1.085-3.366c0-0.895,0.4-1.768,0.573-2.102l0.102-0.153c3.103-3.745,4.811-8.49,4.811-13.361   C87.851,38.447,78.448,29.044,66.889,29.044z"/>
                        <rect x="54.629" y="41.511" fill="#FFFFFF" width="24.253" height="1.715"/>
                        <rect x="54.629" y="45.853" fill="#FFFFFF" width="24.253" height="1.714"/>
                        <rect x="54.629" y="49.894" fill="#FFFFFF" width="24.253" height="1.715"/>
                        <rect x="54.629" y="54.235" fill="#FFFFFF" width="24.253" height="1.715"/>
                        <rect x="54.629" y="58.277" fill="#FFFFFF" width="9.08" height="1.714"/>
                      </g>
</svg>
