<?xml version="1.0" encoding="utf-8"?>
<!-- Generator: Adobe Illustrator 17.1.0, SVG Export Plug-In . SVG Version: 6.00 Build 0)  -->
<!DOCTYPE svg PUBLIC "-//W3C//DTD SVG 1.1//EN" "http://www.w3.org/Graphics/SVG/1.1/DTD/svg11.dtd">
<svg version="1.1" id="Слой_1" xmlns="http://www.w3.org/2000/svg" xmlns:xlink="http://www.w3.org/1999/xlink" x="0px" y="0px"
	 viewBox="0 0 148 142" enable-background="new 0 0 148 142" xml:space="preserve">
                      <g>
                        <path fill="#FFFFFF" d="M46.967,53.144c-0.273,0-0.542-0.1-0.755-0.294l-5.074-4.63c-0.458-0.421-0.491-1.129-0.072-1.583   c0.421-0.463,1.128-0.491,1.583-0.073l4.414,4.026l4.906-3.408c0.506-0.354,1.208-0.229,1.56,0.277   c0.352,0.507,0.229,1.207-0.28,1.563l-5.644,3.921C47.413,53.078,47.193,53.144,46.967,53.144z"/>
                        <path fill="#FFFFFF" d="M46.967,51c-0.616,0-1.121-0.5-1.121-1.121c0-11.844,9.658-21.479,21.526-21.479   c9.292,0,17.503,5.906,20.433,14.698c0.195,0.587-0.123,1.222-0.707,1.419c-0.593,0.194-1.222-0.121-1.42-0.711   c-2.623-7.873-9.979-13.165-18.305-13.165c-10.633,0-19.285,8.632-19.285,19.236C48.087,50.5,47.585,51,46.967,51z"/>
                        <path fill="#FFFFFF" d="M92.745,53.604c-0.274,0-0.556-0.103-0.772-0.313l-4.322-4.127l-4.981,3.297   c-0.519,0.344-1.213,0.199-1.553-0.316c-0.341-0.515-0.2-1.213,0.315-1.552l5.731-3.792c0.431-0.287,1.013-0.237,1.392,0.126   l4.967,4.745c0.449,0.428,0.463,1.138,0.035,1.587C93.334,53.485,93.042,53.604,92.745,53.604z"/>
                        <path fill="#FFFFFF" d="M67.372,71.358c-9.292,0-17.505-5.906-20.432-14.704c-0.195-0.586,0.121-1.222,0.708-1.414   c0.589-0.197,1.222,0.122,1.417,0.707c2.624,7.878,9.98,13.167,18.305,13.167c10.633,0,19.284-8.632,19.284-19.237   c0-0.621,0.505-1.121,1.121-1.121c0.619,0,1.121,0.5,1.121,1.121C88.898,61.724,79.243,71.358,67.372,71.358z"/>
                        <path fill="#FFFFFF" d="M67.372,56.604c-3.707,0-6.724-3.018-6.724-6.725s3.017-6.724,6.724-6.724c3.705,0,6.726,3.017,6.726,6.724   S71.08,56.604,67.372,56.604z M67.372,45.396c-2.474,0-4.482,2.013-4.482,4.481c0,2.476,2.008,4.482,4.482,4.482   c2.474,0,4.483-2.008,4.483-4.482C71.855,47.409,69.846,45.396,67.372,45.396z"/>
                      </g>
</svg>
