<?xml version="1.0" encoding="utf-8"?>
<!-- Generator: Adobe Illustrator 17.1.0, SVG Export Plug-In . SVG Version: 6.00 Build 0)  -->
<!DOCTYPE svg PUBLIC "-//W3C//DTD SVG 1.1//EN" "http://www.w3.org/Graphics/SVG/1.1/DTD/svg11.dtd">
<svg version="1.1" id="Слой_1" xmlns="http://www.w3.org/2000/svg" xmlns:xlink="http://www.w3.org/1999/xlink" x="0px" y="0px"
	 viewBox="0 0 148 142" enable-background="new 0 0 148 142" xml:space="preserve" preserveAspectRatio="xMinYMid">
                      <g>
                        <path fill="#FFFFFF" d="M83.25,84.438L76,86.251l-7.25-1.813l-7.25,3.625V72.637l5.776-2.871c0.299,0.455,0.606,0.907,0.919,1.355   l-4.883,2.441v11.779l5.438-2.718L76,84.436l7.25-1.812l5.438,2.718V73.563l-4.498-2.998c0.295-0.438,0.582-0.873,0.865-1.313   l5.445,3.403v15.406L83.25,84.438z M84.156,74.145v6.099c0,0.313-0.203,0.571-0.454,0.571s-0.453-0.258-0.453-0.571v-6.099   c0-0.314,0.203-0.569,0.453-0.569S84.156,73.829,84.156,74.145z M76.907,82.055c0,0.314-0.202,0.569-0.453,0.569   c-0.25,0-0.454-0.255-0.454-0.569v-1.24l0,0c0,0,0.342-0.369,0.907-1.004V82.055z M69.657,74.145v6.099   c0,0.313-0.203,0.571-0.454,0.571c-0.25,0-0.453-0.258-0.453-0.571v-6.099c0-0.314,0.203-0.569,0.453-0.569   C69.454,73.574,69.657,73.829,69.657,74.145z M76,79c0,0-10.875-12.117-10.875-18.123S69.995,50.002,76,50.002   s10.875,4.869,10.875,10.875S76,79,76,79z M76,51.814c-5.004,0-9.062,4.107-9.062,9.175c0,5.068,9.062,15.292,9.062,15.292   s9.063-10.224,9.063-15.292C85.063,55.923,81.005,51.814,76,51.814z M71.469,59.971c0-2.503,2.028-4.531,4.531-4.531   s4.532,2.028,4.532,4.531c0,2.502-2.029,4.531-4.532,4.531C73.498,64.501,71.469,62.473,71.469,59.971z M78.719,59.971   c0-1.502-1.217-2.719-2.719-2.719c-1.501,0-2.719,1.217-2.719,2.719c0,1.501,1.217,2.719,2.719,2.719   C77.502,62.688,78.719,61.472,78.719,59.971z"/>
                        <path fill="#6EC9F3" d="M75.836,109.904c-21.873,0-39.667-17.795-39.667-39.666c0-21.874,17.794-39.667,39.667-39.667   s39.667,17.794,39.667,39.667C115.503,92.109,97.708,109.904,75.836,109.904z M75.836,32.571c-20.77,0-37.667,16.897-37.667,37.667   c0,20.77,16.897,37.666,37.667,37.666c20.77,0,37.667-16.896,37.667-37.666C113.503,49.468,96.605,32.571,75.836,32.571z"/>
                      </g>
</svg>
