<?xml version="1.0" encoding="utf-8"?>
<!-- Generator: Adobe Illustrator 17.1.0, SVG Export Plug-In . SVG Version: 6.00 Build 0)  -->
<!DOCTYPE svg PUBLIC "-//W3C//DTD SVG 1.1//EN" "http://www.w3.org/Graphics/SVG/1.1/DTD/svg11.dtd">
<svg version="1.1" id="Слой_1" xmlns="http://www.w3.org/2000/svg" xmlns:xlink="http://www.w3.org/1999/xlink" x="0px" y="0px"
	 viewBox="0 0 148 142" enable-background="new 0 0 148 142" xml:space="preserve">
           
                          <path fill="#FFFFFF" d="M75.874,58.36c0.393,0.428,1.038,0.428,1.433,0l1.226-1.329c0.394-0.428,0.394-1.128,0-1.556l-1.226-1.329    c-0.395-0.428-1.039-0.428-1.433,0l-1.225,1.329c-0.395,0.428-0.395,1.127,0,1.556L75.874,58.36z"/>
                          <path fill="#FFFFFF" d="M61.223,64.425c0.126-0.447-0.135-0.916-0.581-1.042l-1.386-0.394c-0.447-0.127-0.915,0.134-1.041,0.583    l-0.395,1.384c-0.127,0.446,0.137,0.914,0.582,1.042l1.387,0.391c0.445,0.127,0.914-0.134,1.04-0.581L61.223,64.425z"/>
                          <path fill="#FFFFFF" d="M95.004,64.957l-0.394-1.384c-0.126-0.448-0.595-0.709-1.042-0.583l-1.386,0.394    c-0.446,0.126-0.709,0.595-0.583,1.042l0.396,1.384c0.126,0.447,0.595,0.708,1.042,0.581L94.423,66    C94.868,65.871,95.129,65.403,95.004,64.957z"/>
                          <path fill="#FFFFFF" d="M90.826,66.863l-7.438,3.12l-5.923-9.851c-0.202-0.336-0.565-0.542-0.958-0.542s-0.757,0.206-0.959,0.542    l-5.925,9.853l-7.497-3.124c-0.371-0.154-0.797-0.097-1.115,0.149c-0.317,0.246-0.479,0.646-0.421,1.044l1.308,9.031    c0,0.01-0.005,0.021-0.005,0.029c0,0.117,0.023,0.229,0.057,0.332l0.606,4.193c0.08,0.551,0.553,0.959,1.107,0.959H89.35    c0.56,0,1.03-0.412,1.107-0.963l1.907-13.588c0.058-0.396-0.105-0.796-0.423-1.042C91.623,66.763,91.197,66.708,90.826,66.863z     M88.378,80.363H64.632l-0.309-2.127h24.354L88.378,80.363z M88.991,76H64l-0.913-6.314l6.569,2.734    c0.512,0.214,1.102,0.021,1.388-0.456l5.464-9.084l5.463,9.084c0.286,0.478,0.879,0.67,1.392,0.456l6.517-2.732L88.991,76z"/>
            
</svg>
