<?xml version="1.0" encoding="utf-8"?>
<!-- Generator: Adobe Illustrator 17.1.0, SVG Export Plug-In . SVG Version: 6.00 Build 0)  -->
<!DOCTYPE svg PUBLIC "-//W3C//DTD SVG 1.1//EN" "http://www.w3.org/Graphics/SVG/1.1/DTD/svg11.dtd">
<svg version="1.1" id="Слой_1" xmlns="http://www.w3.org/2000/svg" xmlns:xlink="http://www.w3.org/1999/xlink" x="0px" y="0px"
	 viewBox="0 0 649.1 459.2" enable-background="new 0 0 649.1 459.2" xml:space="preserve">
<g>
	<path fill="#FFFFFF" d="M324.4,307.7c-6.8-8.2-13.6-16-20-24.1c-18.2-22.7-35.5-46.1-49.4-71.7c-6.4-11.8-12.3-23.9-14.5-37.3
		c-2.8-17.2,1-33.4,9-48.6c16.3-30.9,49.6-48.5,84.4-44.8c39,4.1,70.5,35.4,75.3,74c2,15.9-2.2,30.3-8.7,44.4
		c-10.4,22.4-24,42.8-38.9,62.4c-11.1,14.6-23,28.7-34.5,43C326.3,305.8,325.5,306.6,324.4,307.7z M324,287c1.7-1.9,2.7-2.9,3.5-3.9
		c8.7-10.8,17.5-21.5,25.9-32.6c13.6-18.1,26.3-36.9,35.5-57.7c5.1-11.5,7.8-23.3,6-36.1c-5.5-39.8-41.7-66.9-81.6-60.8
		c-44.1,6.7-71.6,55.6-54.2,94.1c7.5,16.5,16.3,32.2,26.9,46.8C298.2,253.6,311,270,324,287z"/>
	<path fill="#FFFFFF" d="M211.1,378.5c0-1.6,0-2.6,0-3.6c0-37.9,0-75.8-0.1-113.7c0-2.5,0.7-3.7,3-4.8c13.1-6.4,26-12.9,39.1-19.4
		c1-0.5,2-0.9,3.2-1.5c2.4,3.5,4.7,6.9,7.1,10.5c-11.6,5.8-22.9,11.6-34.4,17.1c-2.8,1.4-3.8,2.9-3.8,6.1
		c0.1,27.9,0.1,55.7,0.1,83.6c0,1.2,0,2.5,0,4.3c1.3-0.6,2.3-1,3.2-1.4c12.3-6.1,24.5-12.3,36.9-18.4c1.5-0.7,3.5-0.9,5.1-0.5
		c17.2,4.2,34.3,8.5,51.4,12.7c1.7,0.4,3.6,0.4,5.3,0c17.2-4.2,34.3-8.6,51.4-12.7c1.7-0.4,3.8-0.1,5.4,0.6
		c12.2,5.9,24.2,12,36.3,18c1,0.5,2,0.9,3.3,1.6c0.1-1.4,0.2-2.4,0.2-3.5c0-28.4,0-56.9,0.1-85.3c0-2.5-0.8-3.8-2.8-5.1
		c-9.8-6.4-19.5-13-29.3-19.5c-0.9-0.6-1.8-1.3-3-2.1c2.2-3.4,4.4-6.7,6.7-10.2c4.1,2.6,8.1,5,12.1,7.5c9.5,5.9,19,11.8,28.3,17.8
		c1.1,0.7,2,2.4,2,3.6c0.1,38.7,0.1,77.4,0.1,116.1c0,0.4-0.1,0.9-0.1,1.9c-1.3-0.6-2.5-1.1-3.6-1.7c-16.7-8.4-33.4-16.8-50.2-25
		c-1.6-0.8-3.9-1-5.7-0.6c-17.1,4.1-34.1,8.4-51.1,12.6c-1.7,0.4-3.6,0.4-5.3,0c-17.1-4.2-34.1-8.5-51.1-12.6
		c-1.8-0.4-4.1-0.2-5.7,0.6c-16.7,8.2-33.3,16.5-49.9,24.8C214.1,377.2,212.9,377.7,211.1,378.5z"/>
	<path fill="#FFFFFF" d="M381.3,293.4c0-7,0-14,0-21c0-0.8-0.1-1.6,0-2.4c0.2-2.2,0.8-4.6,3.5-4.6c2.9-0.1,3.7,2.3,3.7,4.7
		c0.1,15.7,0.1,31.4,0,47c0,2.3-0.9,4.6-3.4,4.7c-2.8,0.1-3.7-2.3-3.7-4.7C381.2,309.2,381.3,301.3,381.3,293.4
		C381.3,293.4,381.3,293.4,381.3,293.4z"/>
	<path fill="#FFFFFF" d="M267.9,293.5c0-7.4,0-14.9,0-22.3c0-1.1-0.2-2.5,0.3-3.3c0.7-1.1,2-2.3,3.2-2.4c0.9-0.1,2.2,1.2,3,2.2
		c0.5,0.7,0.4,1.9,0.4,2.9c0,15.3,0,30.7,0,46c0,0.3,0,0.7,0,1c-0.1,2.3-1.1,4.2-3.5,4.2c-2.4,0-3.4-2-3.4-4.3
		C267.9,309.5,268,301.5,267.9,293.5C268,293.5,267.9,293.5,267.9,293.5z"/>
	<path fill="#FFFFFF" d="M324.6,194.2c-19.6,0-35.5-15.9-35.5-35.5c0-19.5,16.1-35.5,35.5-35.5c19.5,0,35.5,16.1,35.5,35.6
		C360.1,178.3,344.2,194.2,324.6,194.2z M324.4,180c11.8,0.1,21.4-9.3,21.5-21c0.1-11.7-9.4-21.4-21.1-21.5
		c-11.6-0.2-21.4,9.5-21.5,21.1C303.2,170.3,312.7,179.9,324.4,180z"/>
	<path fill="#FFFFFF" d="M321.1,316.8c0,4.7,0,9.4,0,14.2c0,2.4,0.9,4.8,3.7,4.7c2.5-0.1,3.4-2.4,3.4-4.7c0-4.7,0-9.5,0-14.2H321.1z
		"/>
</g>
</svg>
