<?xml version="1.0" encoding="utf-8"?>
<!-- Generator: Adobe Illustrator 17.1.0, SVG Export Plug-In . SVG Version: 6.00 Build 0)  -->
<!DOCTYPE svg PUBLIC "-//W3C//DTD SVG 1.1//EN" "http://www.w3.org/Graphics/SVG/1.1/DTD/svg11.dtd">
<svg version="1.1" id="Слой_1" xmlns="http://www.w3.org/2000/svg" xmlns:xlink="http://www.w3.org/1999/xlink" x="0px" y="0px"
	 viewBox="0 0 148 142" enable-background="new 0 0 148 142" xml:space="preserve">
                          <g>
                            <path fill="#FFFFFF" d="M58.402,69.299c-7.388,0-9.578-0.354-10.662-0.664c-0.437-0.124-1.045-0.495-1.47-1.562   c-0.523-1.315-0.645-3.449,0.166-4.815c1.072-1.813,2.973-2.39,6.118-3.346c1.457-0.44,2.558-0.822,3.306-1.098   c-1.161-1.425-2.982-4.358-3.493-9.159c-0.728-6.82,1.158-9.674,3.098-11.566c1.239-1.21,3.421-1.933,5.836-1.933   c2.814,0,5.245,0.989,6.502,2.646c2.586,3.404,3.446,9.962,1.843,14.03c-1.086,2.75-2.336,4.738-3.049,5.852   c0.7,0.229,1.728,0.532,2.556,0.777c1.558,0.462,3.168,0.939,3.94,1.261c2.035,0.842,3.387,2.275,3.705,3.937   c0.322,1.677-0.15,3.526-0.477,4.145c-0.707,1.334-2.704,1.354-12.302,1.452l-2.531,0.027   C60.369,69.293,59.343,69.299,58.402,69.299z M61.301,36.957c-1.927,0-3.682,0.544-4.579,1.421   c-1.151,1.124-3.297,3.217-2.563,10.086c0.668,6.276,3.813,8.982,3.844,9.01c0.238,0.199,0.357,0.509,0.314,0.815   c-0.043,0.308-0.24,0.572-0.524,0.698c-0.063,0.028-1.586,0.7-4.712,1.646c-3.113,0.945-4.404,1.377-5.094,2.541   c-0.363,0.611-0.437,1.832-0.17,2.841c0.166,0.63,0.389,0.865,0.438,0.896c0.988,0.279,3.479,0.677,13.214,0.569l2.532-0.026   c6.032-0.063,10.052-0.104,10.754-0.548c0.167-0.391,0.498-1.749,0.275-2.909c-0.2-1.039-1.182-2.017-2.626-2.613   c-0.688-0.284-2.322-0.77-3.765-1.196c-3.992-1.185-4.23-1.254-4.23-2.077c0-0.347,0.14-0.565,0.604-1.291   c0.665-1.038,1.901-2.97,2.957-5.646c1.487-3.771,0.361-9.699-1.601-12.282C65.464,37.697,63.522,36.957,61.301,36.957z"/>
                            <path fill="#FFFFFF" d="M80.32,64.993l-0.04-1.799c1.197-0.027,4.335-0.098,4.937-0.444c0.157-0.377,0.465-1.654,0.254-2.752   c-0.188-0.98-1.12-1.907-2.491-2.477c-0.652-0.271-2.214-0.731-3.59-1.141c-3.783-1.121-4.094-1.214-4.094-2.03   c0-0.344,0.135-0.555,0.583-1.253c0.636-0.993,1.819-2.843,2.83-5.405c1.421-3.604,0.345-9.265-1.528-11.732   c-1.499-1.973-5.34-2.331-7.772-1.33l-0.685-1.666c3.107-1.272,7.823-0.813,9.892,1.908c2.483,3.271,3.311,9.571,1.77,13.48   c-1.026,2.604-2.209,4.494-2.896,5.568c0.671,0.219,1.634,0.503,2.413,0.734c1.486,0.44,3.024,0.896,3.766,1.202   c1.963,0.813,3.264,2.199,3.571,3.8c0.311,1.618-0.146,3.4-0.459,3.995C86.224,64.697,84.755,64.896,80.32,64.993z"/>
                          </g>
</svg>
