<?xml version="1.0" encoding="utf-8"?>
<!-- Generator: Adobe Illustrator 17.1.0, SVG Export Plug-In . SVG Version: 6.00 Build 0)  -->
<!DOCTYPE svg PUBLIC "-//W3C//DTD SVG 1.1//EN" "http://www.w3.org/Graphics/SVG/1.1/DTD/svg11.dtd">
<svg version="1.1" id="Слой_1" xmlns="http://www.w3.org/2000/svg" xmlns:xlink="http://www.w3.org/1999/xlink" x="0px" y="0px"
	 viewBox="0 0 148 142" enable-background="new 0 0 148 142" xml:space="preserve">
         <path fill="#FFFFFF" d="M76.725,70.919c-0.615,0-1.313-0.378-1.482-1.223c-0.166-0.624-4.936-14.897-5.884-17.62  c-0.855,0.751-3.293,3.026-4.989,4.62c-0.114,4.802-0.189,7.342-0.224,7.553c-0.103,0.604-2.23,2.755-3.063,2.755  c-0.99,0-1.356-1.006-1.512-1.436c-0.104-0.281-0.271-0.96-0.537-2.045c-0.151-0.62-0.302-1.241-0.408-1.622  c-0.252,0.235-0.571,0.51-0.966,0.729c-1.042,0.574-2.142,0.62-2.806,0.131c-0.804-0.597-0.857-1.938-0.449-2.842  c0.193-0.428,0.576-0.908,0.914-1.333c0.012-0.016,0.023-0.03,0.038-0.048c-0.24-0.063-0.663-0.164-1.149-0.279  c-2.961-0.71-3.298-0.835-3.569-1.107c-0.277-0.275-0.418-0.681-0.387-1.135c0.032-0.475,0.247-0.903,0.575-1.149  c0.096-0.072,0.256-0.232,0.446-0.419c1.003-0.974,1.504-1.401,2.086-1.401c0.239,0.005,0.973,0.01,1.895,0.01  c2.863,0,4.545-0.035,5.088-0.073c0.81-0.723,3.978-4.117,4.909-5.248c-0.004-0.002-0.009-0.004-0.013-0.006  c-0.24-0.086-3.654-1.158-6.955-2.195c-7.414-2.329-10.561-3.322-10.854-3.444c-0.528-0.221-1.132-0.585-1.132-1.453  c0-0.516,0.228-0.883,0.398-1.112c0.017-0.023,1.665-1.963,2.543-1.963c0.247,0,22.235-0.037,25.435-0.043l5.325-5.621  c0.001-0.005,1.074-1.31,2.438-1.965c0.598-0.288,1.396-0.446,2.244-0.446c0.557,0,1.913,0.073,2.507,0.753  c0.912,1.042,0.563,2.932,0.373,3.696c-0.17,0.681-0.427,1.441-1.51,2.576c-0.47,0.489-5.112,4.916-6.319,6.065  c-0.133,25.786-0.189,25.898-0.315,26.148c-0.131,0.261-1.753,2.034-2.398,2.165C76.926,70.908,76.829,70.919,76.725,70.919z   M69.609,50.001c0.326,0,0.927,0.129,1.271,0.993c0.045,0.113,5.042,14.854,5.979,17.846c0.298-0.277,0.661-0.64,0.866-0.861  c0.063-2.103,0.154-16.272,0.203-25.793l0.002-0.383l0.277-0.265c1.678-1.598,6.123-5.839,6.538-6.271  c0.843-0.884,0.96-1.354,1.063-1.77c0.242-0.961,0.204-1.863,0.02-2.075c-0.036-0.005-0.474-0.138-1.151-0.138  c-0.576,0-1.109,0.098-1.464,0.269c-0.996,0.479-1.858,1.521-1.868,1.532l-5.898,6.23l-0.387,0.001c0,0-23.102,0.039-25.605,0.043  c-0.299,0.226-0.912,0.813-1.201,1.114c0.983,0.331,6.484,2.06,10.568,3.342c4.989,1.566,6.891,2.167,7.07,2.237  c1.515,0.592,1.421,1.57,1.23,2.104c-0.192,0.531-5.374,6.254-6.107,6.529c-0.194,0.071-0.458,0.17-5.762,0.17  c-0.77,0-1.41-0.003-1.738-0.006c-0.245,0.169-0.738,0.646-0.988,0.891c-0.07,0.067-0.139,0.133-0.202,0.194  c0.656,0.18,1.67,0.422,2.302,0.572c0.654,0.157,1.201,0.289,1.398,0.352c1.441,0.443,1.557,1.207,1.398,1.77  c-0.088,0.307-0.299,0.58-0.695,1.079c-0.245,0.309-0.58,0.729-0.683,0.955c-0.102,0.226-0.106,0.496-0.078,0.644  c0.091,0.002,0.36,0.006,0.817-0.247c0.289-0.161,0.545-0.407,0.771-0.624c0.35-0.334,0.68-0.649,1.178-0.649l0.288,0.04  c0.655,0.156,1.013,0.541,1.263,1.336c0.107,0.35,0.304,1.144,0.498,1.936c0.161,0.658,0.379,1.549,0.466,1.817  c0.4-0.345,0.91-0.84,1.128-1.1c0.036-0.854,0.14-4.953,0.201-7.537l0.009-0.376l0.273-0.258c5.402-5.087,5.692-5.254,5.803-5.317  C68.924,50.175,69.223,50.001,69.609,50.001z"/>
</svg>
