<?xml version="1.0" encoding="utf-8"?>
<!-- Generator: Adobe Illustrator 17.1.0, SVG Export Plug-In . SVG Version: 6.00 Build 0)  -->
<!DOCTYPE svg PUBLIC "-//W3C//DTD SVG 1.1//EN" "http://www.w3.org/Graphics/SVG/1.1/DTD/svg11.dtd">
<svg version="1.1" id="Слой_1" xmlns="http://www.w3.org/2000/svg" xmlns:xlink="http://www.w3.org/1999/xlink" x="0px" y="0px"
	 viewBox="0 0 148 142" enable-background="new 0 0 148 142" xml:space="preserve" preserveAspectRatio="xMinYMid">
<g>
	<g>
		<path fill="#6EC9F3" d="M74,110.7c-21.9,0-39.7-17.8-39.7-39.7c0-21.9,17.8-39.7,39.7-39.7s39.7,17.8,39.7,39.7
			C113.7,92.9,95.9,110.7,74,110.7z M74,33.3c-20.8,0-37.7,16.9-37.7,37.7s16.9,37.7,37.7,37.7s37.7-16.9,37.7-37.7
			S94.8,33.3,74,33.3z"/>
	</g>
	<g>
		<path fill="#FFFFFF" d="M58,73.1c0-4.4,0-8.7,0-13.1c0-1.3,0.9-2.2,2.2-2.2c7.3,0,14.7,0,22,0c1.4,0,2.1,0.7,2.1,2.2
			c0,6.8,0,13.6,0,20.4c0,0.3-0.1,0.6-0.3,0.8c-2.3,2.3-4.6,4.7-6.8,7c-0.2,0.2-0.5,0.3-0.8,0.3c-5.4,0-10.8,0-16.2,0
			c-1.4,0-2.1-0.8-2.1-2.2C58,81.9,58,77.5,58,73.1z M82.4,78.8c0-6.4,0-12.8,0-19.1c-7.5,0-15,0-22.4,0c0,0.2,0,0.3,0,0.4
			c0,8.6,0,17.2,0,25.9c0,0.4,0.1,0.5,0.5,0.5c4.7,0,9.4,0,14.1,0c0.1,0,0.3,0,0.5,0c0-0.3,0-0.5,0-0.7c0-1.7,0-3.3,0-5
			c0-1.2,0.8-1.9,2-1.9C78.7,78.8,80.5,78.8,82.4,78.8z M76.9,80.8c0,1.6,0,3.2,0,4.7c1.5-1.6,3.1-3.1,4.6-4.7
			C80,80.8,78.4,80.8,76.9,80.8z"/>
		<path fill="#FFFFFF" d="M88,55.5c-7.5,0-15,0-22.4,0c0,0.2,0,0.4-0.1,0.6c-0.6,0-1.2,0-1.8,0c-0.4-1.2,0.4-2.4,1.7-2.6
			c0.2,0,0.4,0,0.6,0c7.2,0,14.4,0,21.7,0c0.3,0,0.6,0,0.9,0.1c0.9,0.2,1.4,1,1.4,2c0,2.2,0,4.4,0,6.5c0,6.6,0,13.2,0,19.8
			c0,1.1-0.5,1.9-1.4,2.1c-0.1,0-0.1,0-0.2,0c-1.7,0-3.5,0-5.3,0c0.6-0.6,1.2-1.2,1.8-1.8c0.1-0.1,0.3-0.1,0.4-0.1
			c0.9,0,1.8,0,2.7,0C88,73.4,88,64.5,88,55.5z"/>
		<path fill="#FFFFFF" d="M71.2,63.5c2.7,0,5.5,0,8.2,0c0.7,0,1.1,0.4,1.1,1c0,0.4-0.3,0.8-0.7,0.9c-0.2,0-0.4,0.1-0.7,0.1
			c-5.3,0-10.7,0-16,0c-0.2,0-0.4,0-0.6,0c-0.4-0.1-0.7-0.5-0.8-0.9c0-0.5,0.3-0.9,0.7-1c0.2,0,0.4,0,0.5,0
			C65.8,63.5,68.5,63.5,71.2,63.5z"/>
		<path fill="#FFFFFF" d="M71.2,76.9c-2.7,0-5.4,0-8.1,0c-0.2,0-0.3,0-0.5,0c-0.5-0.1-0.8-0.5-0.8-0.9c0-0.5,0.4-0.9,0.9-1
			c0.1,0,0.1,0,0.2,0c5.6,0,11.1,0,16.7,0c0.6,0,1,0.4,1,1c0,0.6-0.4,0.9-1,0.9c-1.2,0-2.3,0-3.5,0C74.4,76.9,72.8,76.9,71.2,76.9z"
			/>
		<path fill="#FFFFFF" d="M71.2,71.2c-2.7,0-5.4,0-8.1,0c-0.2,0-0.3,0-0.5,0c-0.5-0.1-0.8-0.4-0.8-0.9c0-0.4,0.2-0.8,0.7-1
			c0.1,0,0.3-0.1,0.4-0.1c5.5,0,11.1,0,16.6,0c0.6,0,1,0.3,1.1,0.8c0.1,0.6-0.3,1-0.9,1.1c-0.5,0-0.9,0-1.4,0
			C75.9,71.2,73.5,71.2,71.2,71.2z"/>
	</g>
</g>
</svg>
