<?xml version="1.0" encoding="utf-8"?>
<!-- Generator: Adobe Illustrator 17.1.0, SVG Export Plug-In . SVG Version: 6.00 Build 0)  -->
<!DOCTYPE svg PUBLIC "-//W3C//DTD SVG 1.1//EN" "http://www.w3.org/Graphics/SVG/1.1/DTD/svg11.dtd">
<svg version="1.1" id="Слой_1" xmlns="http://www.w3.org/2000/svg" xmlns:xlink="http://www.w3.org/1999/xlink" x="0px" y="0px"
	 viewBox="0 0 148 142" enable-background="new 0 0 148 142" xml:space="preserve" preserveAspectRatio="xMinYMid">
<g>
                    <g>
                      <path fill="#6EC9F3" d="M74,110.7c-21.9,0-39.7-17.8-39.7-39.7c0-21.9,17.8-39.7,39.7-39.7s39.7,17.8,39.7,39.7    C113.7,92.9,95.9,110.7,74,110.7z M74,33.3c-20.8,0-37.7,16.9-37.7,37.7s16.9,37.7,37.7,37.7s37.7-16.9,37.7-37.7    S94.8,33.3,74,33.3z"></path>
                    </g>
                    <g>
                      <path fill="#FFFFFF" d="M78.7,82.1c-0.1-1.5-0.2-2.8-0.3-4.2c0-0.5-0.4-0.9-0.8-1.1c-1.2-0.5-2.4-1.1-3.6-1.6    c-1.4-0.6-2.7-1.2-4.1-1.8c-0.5-0.2-0.8-0.6-0.7-1.2c0-0.7,0-1.4,0-2c0-0.3,0.1-0.6,0.3-0.8c0.5-0.7,0.7-1.4,0.9-2.2    c0.1-0.5,0.3-0.9,0.8-1c0.2-0.1,0.4-0.4,0.4-0.6c0-0.3,0-0.8-0.2-0.9c-0.4-0.3-0.6-0.7-0.5-1.2c0.1-0.4,0.1-0.9,0.1-1.3    c0.1-1.9-0.8-3.3-2.6-3.9c-1.5-0.5-2.9-0.3-4.2,0.7c-1,0.7-1.5,1.7-1.4,2.9c0,0.5,0.1,1.1,0.2,1.6c0.1,0.5-0.1,0.8-0.5,1.2    c-0.2,0.2-0.3,0.6-0.3,0.9c0,0.2,0.3,0.6,0.5,0.6c0.4,0.2,0.7,0.5,0.7,0.9c0.1,0.9,0.4,1.8,1,2.5c0.1,0.1,0.2,0.4,0.2,0.6    c0,0.7,0,1.5,0,2.2c0,0.5-0.3,0.8-0.7,1c-1.8,0.8-3.6,1.5-5.4,2.3c-0.8,0.3-1.5,0.7-2.3,1.1c-0.5,0.3-0.8,0.7-0.9,1.3    c-0.1,1.6-0.1,3.2-0.2,4.7c0,0.2,0,0.4,0,0.5c-0.2,0.4-0.5,0.6-0.9,0.6c-0.5-0.1-0.8-0.4-0.8-0.8c-0.1-1.9-0.1-3.8,0.2-5.7    c0.2-1,0.8-1.8,1.7-2.2c1.2-0.6,2.4-1.1,3.6-1.6c1.2-0.5,2.3-1,3.5-1.5c0.3-0.1,0.3-0.3,0.4-0.6c0-0.7,0-1.3-0.4-1.8    c-0.1-0.1-0.1-0.1-0.1-0.2c-0.4-0.9-0.7-1.8-1.4-2.6c-0.9-1-0.7-2.3-0.1-3.4c0.2-0.4,0.2-0.7,0.2-1.2c0-0.7-0.1-1.5,0.1-2.2    c0.6-2.2,2.3-3.5,4.5-3.9c2.4-0.5,5,0.5,6.3,2.4c0.8,1.2,1,2.5,0.8,4c0,0.2,0,0.5,0.2,0.7c0.7,1.1,0.8,3.1-0.6,4.2    c-0.1,0.1-0.2,0.3-0.3,0.5c-0.3,0.7-0.7,1.4-0.9,2.1c-0.1,0.5-0.1,1.1-0.1,1.7c0,0.1,0.2,0.2,0.3,0.2c1.9,0.8,3.7,1.6,5.6,2.4    c0.5,0.2,0.9,0.4,1.3,0.7c1.1,0.6,1.8,1.5,1.9,2.7c0.1,1.7,0.1,3.4,0.2,5.1c0,0.7-0.3,1-1,1c-6.8,0-13.7,0-20.5,0    c-0.7,0-1-0.3-1-0.9c0-0.6,0.3-0.9,1-0.9c0.2,0,0.3,0,0.5,0c6.2,0,12.5,0,18.7,0C78.2,82.1,78.4,82.1,78.7,82.1z"></path>
                      <path fill="#FFFFFF" d="M92.8,82.1c-0.1-1.2-0.1-2.4-0.3-3.5c0-0.3-0.3-0.6-0.6-0.7c-0.6-0.4-1.3-0.7-2-1    c-1.4-0.6-2.9-1.2-4.3-1.8c-0.6-0.3-1-0.7-0.9-1.4c0-0.3,0-0.6,0-0.8c0-0.7,0-1.2,0.5-1.8c0.3-0.4,0.4-0.9,0.5-1.4    c0.1-0.5,0.3-0.9,0.8-1c0.4-0.1,0.5-0.9,0.1-1.1c-0.4-0.3-0.5-0.7-0.4-1.2c0-0.2,0-0.5,0.1-0.7c0.2-2-0.8-3.3-2.8-3.6    c-1-0.2-2,0.1-2.8,0.7c-0.8,0.6-1.2,1.4-1.1,2.5c0,0.4,0.1,0.8,0.1,1.2c0.1,0.5,0,0.9-0.5,1.2c-0.4,0.2-0.2,1,0.2,1.1    c0.4,0.2,0.6,0.4,0.7,0.8c0.1,0.8,0.3,1.5,0.9,2.1c0.2,0.2,0.2,0.5,0.2,0.7c0,0.6,0,1.1,0,1.7c0,0.6-0.4,1-0.9,1    c-0.5,0-0.9-0.4-0.9-1c0-0.9,0-1.8-0.5-2.5c-0.1-0.1-0.1-0.2-0.1-0.4c-0.1-0.5-0.4-0.9-0.7-1.3c-0.8-0.8-0.9-2.2-0.4-3.2    c0.3-0.4,0.3-0.9,0.2-1.3c-0.2-1.6,0.4-2.9,1.6-3.9c2.7-2.4,7.3-1.3,8.5,2c0.3,0.7,0.3,1.5,0.2,2.3c0,0.3,0,0.6,0.2,0.8    c0.7,1.2,0.5,2.7-0.6,3.6c0,0-0.1,0.1-0.1,0.1c-0.2,1.1-1.1,1.9-1,3c0,0.3,0.1,0.4,0.4,0.6c1.4,0.6,2.7,1.1,4.1,1.7    c0.4,0.2,0.8,0.4,1.3,0.6c1.4,0.6,2.1,1.6,2.2,3.2c0,1.2,0.1,2.4,0.1,3.6c0,1-0.3,1.2-1.3,1.2c-3.3,0-6.7,0-10,0    c-0.2,0-0.3,0-0.5,0C82.3,83.8,82,83.5,82,83c0-0.5,0.2-0.8,0.7-0.9c0.2,0,0.5,0,0.7,0c2.9,0,5.8,0,8.7,0    C92.3,82.1,92.5,82.1,92.8,82.1z"></path>
                    </g>
                  </g>
</svg>
