<?xml version="1.0" encoding="utf-8"?>
<!-- Generator: Adobe Illustrator 17.1.0, SVG Export Plug-In . SVG Version: 6.00 Build 0)  -->
<!DOCTYPE svg PUBLIC "-//W3C//DTD SVG 1.1//EN" "http://www.w3.org/Graphics/SVG/1.1/DTD/svg11.dtd">
<svg version="1.1" id="Слой_1" xmlns="http://www.w3.org/2000/svg" xmlns:xlink="http://www.w3.org/1999/xlink" x="0px" y="0px"
	 viewBox="0 0 148 142" enable-background="new 0 0 148 142" xml:space="preserve" preserveAspectRatio="xMinYMid">
<g>
                      <path fill="#FFFFFF" d="M86.318,53.794h-5.844c-0.508,0-0.994,0.201-1.353,0.56s-0.56,0.844-0.56,1.352   c0,0.43-0.168,0.832-0.472,1.136c-0.304,0.304-0.708,0.471-1.136,0.471c-0.887,0-1.608-0.722-1.608-1.608   c0-1.056-0.855-1.911-1.911-1.911h-5.844c-1.056,0-1.911,0.855-1.911,1.911v15.602c0,0.297,0,1.389,0,1.693v12.604   c0,0.506,0.201,0.992,0.56,1.352c0.358,0.357,0.844,0.559,1.351,0.559h5.846c1.055,0,1.911-0.854,1.911-1.91   c0-0.886,0.721-1.606,1.607-1.606c0.886,0,1.606,0.722,1.606,1.606c0,1.057,0.855,1.91,1.912,1.91h5.844   c1.056,0,1.91-0.854,1.91-1.91V73c0-0.307,0-1.389,0-1.693V55.706C88.229,54.65,87.374,53.794,86.318,53.794z M86.318,71.307H84V73   h2.318v12.604h-5.844c0-1.943-1.576-3.521-3.519-3.521c-1.943,0-3.518,1.576-3.518,3.521h-5.845V73h2.318v-1.693h-2.318V55.706   h5.844l0,0c0,1.943,1.575,3.517,3.519,3.518c1.942,0,3.519-1.575,3.519-3.518h5.844V71.307L86.318,71.307z"></path>
                      <path fill="#6EC9F3" d="M76.25,109.195c-21.873,0-39.667-17.795-39.667-39.668c0-21.873,17.794-39.667,39.667-39.667   s39.667,17.794,39.667,39.667C115.917,91.4,98.123,109.195,76.25,109.195z M76.25,31.861c-20.77,0-37.667,16.897-37.667,37.667   c0,20.771,16.897,37.668,37.667,37.668c20.77,0,37.667-16.897,37.667-37.668C113.917,48.758,97.02,31.861,76.25,31.861z"></path>
                    </g>
</svg>
