<?xml version="1.0" encoding="utf-8"?>
<!-- Generator: Adobe Illustrator 17.1.0, SVG Export Plug-In . SVG Version: 6.00 Build 0)  -->
<!DOCTYPE svg PUBLIC "-//W3C//DTD SVG 1.1//EN" "http://www.w3.org/Graphics/SVG/1.1/DTD/svg11.dtd">
<svg version="1.1" id="Слой_1" xmlns="http://www.w3.org/2000/svg" xmlns:xlink="http://www.w3.org/1999/xlink" x="0px" y="0px"
	 viewBox="0 0 148 142" enable-background="new 0 0 148 142" xml:space="preserve" preserveAspectRatio="xMinYMid">
<g>
	<g>
		<path fill="#6EC9F3" d="M74,110.7c-21.9,0-39.7-17.8-39.7-39.7c0-21.9,17.8-39.7,39.7-39.7s39.7,17.8,39.7,39.7
			C113.7,92.9,95.9,110.7,74,110.7z M74,33.3c-20.8,0-37.7,16.9-37.7,37.7s16.9,37.7,37.7,37.7s37.7-16.9,37.7-37.7
			S94.8,33.3,74,33.3z"/>
	</g>
	<g>
		<path fill="#FFFFFF" d="M73,91.2c-1.5,0-2.9,0-4.4,0c-2.7,0-3.9-2.7-3.1-4.5c0.1-0.1,0-0.3,0-0.5c-0.5-1.3-0.2-2.5,0.7-3.5
			c0.3-0.4,0.3-1.3-0.1-1.6c-3.1-2.5-4.7-5.8-4.8-9.8c-0.1-5.7,3.8-10.8,9.2-12.2c7-1.7,13.9,3,14.8,10.3c0.6,5-1.2,9-5.1,12
			c-0.6,0.4-0.6,0.9-0.2,1.4c0.8,1,1,2,0.7,3.2c-0.1,0.3-0.1,0.6,0,0.8c0.7,2.2-0.8,4.3-3.1,4.3C76,91.2,74.5,91.2,73,91.2z
			 M72.9,74.4c-0.3,0-0.5,0-0.8,0c-0.7,0-1.3-0.1-1.8-0.5c-2-1.4-1.2-4.7,0.1-5.6c0.1-0.1,0.2-0.1,0.3-0.2c1.7-0.9,3.6,0.2,4,2.3
			c0.1,0.4,0.1,0.8,0.1,1.3c0.5-0.3,1-0.6,1.5-1c0.4,0.5,0.7,0.9,1.1,1.4c-0.8,0.5-1.5,1-2.2,1.4c-0.3,0.2-0.4,0.3-0.4,0.7
			c0,1.9-0.1,3.8-0.1,5.7c0,0.7,0,1.4,0,2.2c1.1,0,2.3,0,3.4,0c0-0.2,0-0.4,0-0.6c-0.1-0.6,0.2-0.9,0.7-1.2
			c4.2-2.5,6.1-7.7,4.6-12.4c-1.5-4.9-6.2-7.9-11.3-7.3c-5.2,0.7-10,5.9-8.7,12.7c0.6,2.9,2.2,5.1,4.6,6.7c0.3,0.2,0.4,0.4,0.4,0.7
			c0,0.4,0,0.8,0,1.3c1.6,0,3,0,4.6,0C72.8,79.5,72.8,77,72.9,74.4z M73,87.4c-1.8,0-3.7,0-5.5,0c-0.3,0-0.5,0.1-0.5,0.5
			c-0.1,0.9,0.5,1.6,1.4,1.6c3.1,0,6.2,0,9.3,0c0.9,0,1.4-0.7,1.4-1.6c0-0.4-0.1-0.5-0.5-0.5C76.7,87.4,74.9,87.4,73,87.4z M73,85.6
			c1.8,0,3.7,0,5.5,0c0.2,0,0.4,0,0.4-0.2c0.4-0.7-0.2-1.6-0.9-1.6c-3.3,0-6.6,0-9.9,0c-0.8,0-1.1,0.4-1.1,1.2
			c0,0.4,0.1,0.6,0.5,0.6C69.4,85.6,71.2,85.6,73,85.6z M72.9,71.6C73,71.6,73,71.6,72.9,71.6c0-0.5-0.1-1-0.3-1.5
			c-0.2-0.6-1.1-0.7-1.5-0.3c-0.4,0.5-0.6,1.7-0.2,2.3c0.3,0.5,0.9,0.6,1.6,0.4c0.6-0.1,0.2-0.6,0.3-0.9
			C72.9,71.7,72.9,71.7,72.9,71.6z"/>
		<path fill="#FFFFFF" d="M81.8,59.1c-0.9-0.1-1.5-1-1.1-1.8c0.6-1.1,1.2-2.2,1.9-3.3c0.3-0.5,1-0.6,1.5-0.3c0.5,0.3,0.7,1,0.4,1.5
			c-0.6,1.1-1.2,2.2-1.9,3.2C82.5,58.8,82.1,58.9,81.8,59.1z"/>
		<path fill="#FFFFFF" d="M67.7,57c0,0.5-0.3,1-0.8,1.2c-0.5,0.2-1,0-1.3-0.5c-0.6-1.2-1.1-2.4-1.6-3.6c-0.2-0.5,0.1-1.1,0.6-1.4
			c0.5-0.3,1.2-0.1,1.4,0.4c0.6,1.2,1.1,2.4,1.7,3.6C67.7,56.8,67.7,56.9,67.7,57z"/>
		<path fill="#FFFFFF" d="M75.5,53.7c0,0.6-0.1,1.2-0.1,1.8c-0.1,0.7-0.5,1.1-1.2,1.1c-0.6,0-1.1-0.5-1.1-1.2c0-1.2,0.1-2.4,0.2-3.7
			c0-0.7,0.6-1.1,1.2-1.1c0.6,0,1.1,0.5,1.1,1.2c0,0.3,0,0.6,0,0.9C75.5,53.2,75.5,53.5,75.5,53.7C75.5,53.7,75.5,53.7,75.5,53.7z"
			/>
		<path fill="#FFFFFF" d="M60.3,63.2c-0.1-0.1-0.4-0.1-0.6-0.3c-0.9-0.7-1.7-1.4-2.6-2.1c-0.6-0.5-0.7-1.2-0.3-1.7
			c0.4-0.5,1.1-0.6,1.7-0.2c0.9,0.7,1.8,1.4,2.7,2.2c0.4,0.3,0.5,0.8,0.3,1.3C61.3,62.9,60.9,63.2,60.3,63.2z"/>
		<path fill="#FFFFFF" d="M90.2,60.4c0.6,0,1.1,0.3,1.2,0.8c0.1,0.5,0,1-0.4,1.3c-1,0.7-2,1.4-3.1,2c-0.5,0.3-1.2,0.1-1.5-0.4
			c-0.3-0.5-0.2-1.2,0.3-1.6c1-0.6,2-1.3,2.9-1.9C89.9,60.5,90.1,60.5,90.2,60.4z"/>
	</g>
</g>
</svg>
