<?xml version="1.0" encoding="utf-8"?>
<!-- Generator: Adobe Illustrator 17.1.0, SVG Export Plug-In . SVG Version: 6.00 Build 0)  -->
<!DOCTYPE svg PUBLIC "-//W3C//DTD SVG 1.1//EN" "http://www.w3.org/Graphics/SVG/1.1/DTD/svg11.dtd">
<svg version="1.1" id="Слой_1" xmlns="http://www.w3.org/2000/svg" xmlns:xlink="http://www.w3.org/1999/xlink" x="0px" y="0px"
	 viewBox="0 0 649.1 459.2" enable-background="new 0 0 649.1 459.2" xml:space="preserve">
<g>
	<path fill="#FFFFFF" d="M388.8,247.2c16.8-7.6,33.3-15.1,49.8-22.7c5.6-2.6,11.2-5.2,16.9-7.7c9.2-4.1,16.9,1.5,15.7,11.6
		c-2.3,18.9-4.8,37.7-7.2,56.5c-3.2,24.8-6.4,49.7-9.6,74.5c-0.2,1.8-0.4,3.6-0.8,5.3c-1.1,5.3-5,8.6-10.5,8.7c-1,0-1.9,0-2.9,0
		c-76.5,0-153.1,0-229.6,0c-9,0-12.5-2.9-13.7-11.8c-5.8-43.8-11.6-87.6-17.5-131.4c-0.1-1-0.2-1.9-0.3-2.9
		c-0.4-9.4,7-14.6,15.6-10.7c19.8,8.9,39.6,17.9,59.4,26.9c2.6,1.2,5.2,2.3,8.1,3.6c4.9-8.9,9.7-17.5,14.5-26.2
		c13-23.5,26-47,38.9-70.5c2.2-4,4.9-7.1,9.7-7.2c5.1-0.1,7.8,3.2,10.1,7.3c17,30.9,34,61.7,51.1,92.5
		C387.2,244.5,387.9,245.8,388.8,247.2z M210.5,307.2c77,0,153.3,0,229.8,0c2.7-20.9,5.3-41.5,8-62.8c-19.6,8.9-38.3,17.5-57.1,26.1
		c-8.5,3.9-12.3,2.6-16.8-5.6c-15.5-28.1-31-56.1-46.5-84.2c-0.7-1.3-1.4-2.5-2.4-4.2c-1,1.7-1.8,2.9-2.4,4.1
		c-15.5,28.1-31,56.1-46.5,84.2c-4.5,8.2-8.4,9.5-16.8,5.7c-17.8-8.1-35.6-16.1-53.4-24.2c-1.2-0.5-2.5-1-4.3-1.8
		C204.9,265.8,207.7,286.5,210.5,307.2z M216.3,350.9c73,0,145.5,0,218.3,0c0.9-7,1.7-13.8,2.6-20.7c-74.8,0-149.1,0-223.7,0
		C214.5,337.4,215.4,344.1,216.3,350.9z"/>
	<path fill="#FFFFFF" d="M347.5,110.1c-1.3,2.8-2.2,5.7-3.8,7.9c-3.3,4.4-7,8.5-10.6,12.7c-4.3,4.9-9.5,4.8-13.8-0.1
		c-3.6-4.1-7.2-8.3-10.7-12.6c-4-4.9-4-11-0.1-15.9c3.5-4.4,7.2-8.7,10.9-12.9c4.1-4.6,9.4-4.6,13.5,0.1c3.7,4.2,7.5,8.5,10.9,13
		C345.5,104.4,346.2,107.3,347.5,110.1z"/>
	<path fill="#FFFFFF" d="M185.3,190.5c-1.4,5-2.8,11.1-5,17c-1.2,3.4-4.6,4.8-8.2,3.9c-4.5-1.2-9-2.5-13.4-4.1
		c-4.1-1.5-6.1-5.4-5-10.1c1-4.8,2.3-9.6,3.7-14.4c1.4-4.7,5.3-6.6,10-5.2c4,1.1,7.9,2.3,11.8,3.6
		C183.1,182.5,184.9,185.3,185.3,190.5z"/>
	<path fill="#FFFFFF" d="M463.9,190.8c0.2-5.1,1.7-8.1,5.4-9.4c4.4-1.6,8.9-3,13.4-4.1c3.9-1,7.2,0.7,8.4,4.2
		c2,5.7,3.5,11.6,4.5,17.5c0.6,4-1.7,7.1-5.8,8.4c-4,1.3-8.1,2.6-12.2,3.8c-3.8,1.1-7.7-0.3-8.9-3.9
		C466.6,201.6,465.2,195.5,463.9,190.8z"/>
</g>
</svg>
